<svg width="90" height="90" viewBox="0 0 90 90" fill="none" xmlns="http://www.w3.org/2000/svg">
<path d="M44.5536 89.1073C69.1599 89.1073 89.1073 69.1599 89.1073 44.5536C89.1073 19.9473 69.1599 0 44.5536 0C19.9473 0 0 19.9473 0 44.5536C0 69.1599 19.9473 89.1073 44.5536 89.1073Z" fill="#EA593B"/>
<path d="M15.9273 33.5497C19.1566 33.5497 21.7745 30.9318 21.7745 27.7025C21.7745 24.4732 19.1566 21.8553 15.9273 21.8553C12.698 21.8553 10.0801 24.4732 10.0801 27.7025C10.0801 30.9318 12.698 33.5497 15.9273 33.5497Z" fill="white"/>
<path d="M15.9273 51.0735C19.1566 51.0735 21.7745 48.4556 21.7745 45.2262C21.7745 41.9969 19.1566 39.379 15.9273 39.379C12.698 39.379 10.0801 41.9969 10.0801 45.2262C10.0801 48.4556 12.698 51.0735 15.9273 51.0735Z" fill="white"/>
<path d="M15.9273 68.6061C19.1566 68.6061 21.7745 65.9882 21.7745 62.7589C21.7745 59.5296 19.1566 56.9117 15.9273 56.9117C12.698 56.9117 10.0801 59.5296 10.0801 62.7589C10.0801 65.9882 12.698 68.6061 15.9273 68.6061Z" fill="white"/>
<path d="M75.1261 23.3171H29.7743C28.4816 23.3171 27.4336 24.3651 27.4336 25.6578V29.7383C27.4336 31.031 28.4816 32.079 29.7743 32.079H75.1261C76.4188 32.079 77.4667 31.031 77.4667 29.7383V25.6578C77.4667 24.3651 76.4188 23.3171 75.1261 23.3171Z" fill="white"/>
<path d="M75.1261 40.8498H29.7743C28.4816 40.8498 27.4336 41.8978 27.4336 43.1905V47.271C27.4336 48.5637 28.4816 49.6116 29.7743 49.6116H75.1261C76.4188 49.6116 77.4667 48.5637 77.4667 47.271V43.1905C77.4667 41.8978 76.4188 40.8498 75.1261 40.8498Z" fill="white"/>
<path d="M75.1261 58.5618H29.7743C28.4816 58.5618 27.4336 59.6098 27.4336 60.9025V64.983C27.4336 66.2757 28.4816 67.3237 29.7743 67.3237H75.1261C76.4188 67.3237 77.4667 66.2757 77.4667 64.983V60.9025C77.4667 59.6098 76.4188 58.5618 75.1261 58.5618Z" fill="white"/>
</svg>
