<svg width="65" height="65" viewBox="0 0 65 65" fill="none" xmlns="http://www.w3.org/2000/svg">
<path d="M64.38 32.3898C64.3789 26.2384 62.6154 20.2161 59.2981 15.0358C55.9807 9.85553 51.2485 5.73423 45.6617 3.15983C40.0749 0.58543 33.8674 -0.334181 27.7742 0.509686C21.6809 1.35355 15.9569 3.92547 11.28 7.92131C6.60312 11.9171 3.16914 17.1695 1.3845 23.0563C-0.400141 28.9432 -0.460718 35.2182 1.21006 41.1383C2.88084 47.0585 6.21303 52.3761 10.812 56.4613C15.411 60.5466 21.0842 63.2286 27.16 64.1899V41.6498H19.03V32.3498H27.2001V25.2599C27.2001 17.1899 32.01 12.7299 39.36 12.7299C41.7754 12.7638 44.1853 12.9742 46.57 13.3598V21.2797H42.51C38.51 21.2797 37.26 23.7597 37.26 26.2797V32.2797H46.19L44.76 41.5798H37.26V64.0798C44.8054 62.8743 51.6764 59.0249 56.6446 53.2194C61.6129 47.4139 64.3546 40.0309 64.38 32.3898Z" fill="#010101"/>
<path d="M44.72 41.6499L46.15 32.3499H37.22V26.3499C37.22 23.7999 38.47 21.3499 42.47 21.3499H46.53V13.4299C44.1453 13.0444 41.7355 12.8337 39.3201 12.7998C31.9701 12.7998 27.16 17.2598 27.16 25.3298V32.4199H19.03V41.72H27.2001V64.22C30.5332 64.74 33.9268 64.74 37.26 64.22V41.6499H44.72Z" fill="white"/>
</svg>
