<svg width="65" height="65" viewBox="0 0 65 65" fill="none" xmlns="http://www.w3.org/2000/svg">
<path d="M32.67 64.58C50.448 64.58 64.86 50.168 64.86 32.3899C64.86 14.6119 50.448 0.199951 32.67 0.199951C14.8919 0.199951 0.47998 14.6119 0.47998 32.3899C0.47998 50.168 14.8919 64.58 32.67 64.58Z" fill="#010101"/>
<path d="M32.6801 15.77C38.0901 15.77 38.68 15.7699 40.87 15.8899C42.1542 15.9055 43.4262 16.1423 44.63 16.5898C45.5045 16.9253 46.299 17.4404 46.9622 18.1018C47.6253 18.7632 48.1423 19.5563 48.48 20.4299C48.9187 21.6393 49.152 22.9136 49.17 24.2C49.27 26.34 49.29 26.9799 49.29 32.3899C49.29 37.7999 49.29 38.4398 49.17 40.5798C49.1524 41.863 48.9191 43.134 48.48 44.3398C48.1402 45.2134 47.6226 46.0069 46.9598 46.6697C46.2971 47.3325 45.5036 47.8502 44.63 48.1899C43.4262 48.6375 42.1542 48.8743 40.87 48.8899C38.73 48.9799 38.0901 49 32.6801 49C27.2701 49 26.62 48.9999 24.49 48.8899C23.2024 48.8752 21.927 48.6385 20.72 48.1899C19.8407 47.8614 19.045 47.3423 18.39 46.6699C17.7154 46.0187 17.1988 45.2216 16.88 44.3398C16.4313 43.1363 16.1945 41.8642 16.1801 40.5798C16.0801 38.4398 16.0601 37.7999 16.0601 32.3899C16.0601 26.9799 16.0601 26.39 16.1801 24.2C16.1947 22.9124 16.4315 21.637 16.88 20.4299C17.201 19.5493 17.7173 18.7526 18.39 18.0999C19.0483 17.4338 19.8432 16.9186 20.72 16.5898C21.927 16.1413 23.2024 15.9046 24.49 15.8899C26.62 15.7899 27.2601 15.77 32.6801 15.77ZM32.6801 12.1199C27.1701 12.1199 26.4801 12.12 24.3201 12.24C22.6389 12.2742 20.9754 12.5919 19.4 13.1799C18.0499 13.6944 16.8258 14.4925 15.8101 15.52C14.7798 16.5335 13.9814 17.7582 13.47 19.1099C12.882 20.6853 12.5642 22.3486 12.53 24.0298C12.43 26.1898 12.41 26.8799 12.41 32.3899C12.41 37.8999 12.41 38.58 12.53 40.74C12.5633 42.4213 12.8811 44.0848 13.47 45.6599C13.9759 47.0144 14.775 48.2404 15.8101 49.25C16.8236 50.2803 18.0483 51.0784 19.4 51.5898C20.9741 52.1825 22.6383 52.5004 24.3201 52.5298C26.4801 52.6298 27.1701 52.6599 32.6801 52.6599C38.1901 52.6599 38.87 52.6598 41.03 52.5298C42.7118 52.5004 44.376 52.1825 45.9501 51.5898C47.2963 51.0677 48.5189 50.2708 49.5399 49.2498C50.5609 48.2287 51.3579 47.0061 51.88 45.6599C52.4689 44.0848 52.7868 42.4213 52.8201 40.74C52.9201 38.58 52.9401 37.8899 52.9401 32.3899C52.9401 26.8899 52.9401 26.1898 52.8201 24.0298C52.7859 22.3486 52.468 20.6853 51.88 19.1099C51.3579 17.7636 50.5609 16.541 49.5399 15.52C48.5189 14.499 47.2963 13.7021 45.9501 13.1799C44.3747 12.5919 42.7112 12.2742 41.03 12.24C38.87 12.14 38.1801 12.1199 32.6801 12.1199Z" fill="white"/>
<path d="M32.68 21.98C30.6207 21.978 28.607 22.5868 26.8938 23.7295C25.1805 24.8722 23.8447 26.4972 23.0553 28.3992C22.2658 30.3012 22.0583 32.3946 22.4588 34.4146C22.8594 36.4346 23.85 38.2905 25.3055 39.7473C26.761 41.2042 28.6159 42.1966 30.6355 42.5991C32.6551 43.0016 34.7487 42.7962 36.6515 42.0086C38.5542 41.2209 40.1806 39.8865 41.3249 38.1743C42.4692 36.4622 43.08 34.4492 43.08 32.3899C43.0801 29.6307 41.9846 26.9844 40.0345 25.0325C38.0844 23.0805 35.4392 21.9826 32.68 21.98ZM32.68 39.1399C31.3422 39.1419 30.0338 38.7469 28.9206 38.0049C27.8074 37.2629 26.9394 36.2071 26.4265 34.9714C25.9136 33.7358 25.7789 32.3757 26.0394 31.0635C26.2999 29.7512 26.944 28.5459 27.89 27.5999C28.836 26.6539 30.0414 26.0098 31.3536 25.7493C32.6659 25.4888 34.0259 25.6236 35.2616 26.1365C36.4972 26.6494 37.5529 27.5172 38.2949 28.6304C39.0369 29.7436 39.432 31.052 39.43 32.3899C39.43 34.1801 38.7188 35.897 37.453 37.1628C36.1871 38.4287 34.4702 39.1399 32.68 39.1399Z" fill="white"/>
<path d="M43.4901 23.9999C44.8321 23.9999 45.9201 22.9119 45.9201 21.5699C45.9201 20.2278 44.8321 19.1399 43.4901 19.1399C42.148 19.1399 41.0601 20.2278 41.0601 21.5699C41.0601 22.9119 42.148 23.9999 43.4901 23.9999Z" fill="white"/>
</svg>
