<svg width="65" height="65" viewBox="0 0 65 65" fill="none" xmlns="http://www.w3.org/2000/svg">
<path d="M32.64 64.58C50.418 64.58 64.8299 50.168 64.8299 32.3899C64.8299 14.6119 50.418 0.199951 32.64 0.199951C14.8619 0.199951 0.449951 14.6119 0.449951 32.3899C0.449951 50.168 14.8619 64.58 32.64 64.58Z" fill="#010101"/>
<path d="M50.68 21.7501C50.68 21.5601 50.68 21.5599 50.48 21.5599C50.0109 21.5551 49.543 21.5151 49.0801 21.44C47.3901 21.18 41.93 18.32 41.01 13.63C40.8966 13.052 40.8198 12.4676 40.78 11.88C40.78 11.66 40.78 11.66 40.56 11.65H34.03C33.6 11.65 33.66 11.5999 33.66 12.0299V39.8399C33.6655 40.1747 33.6422 40.5092 33.5901 40.8399C33.4613 41.6419 33.1709 42.4095 32.7367 43.096C32.3024 43.7825 31.7334 44.3738 31.0639 44.8338C30.3945 45.2938 29.6385 45.6131 28.842 45.7723C28.0455 45.9315 27.2249 45.9274 26.43 45.7601C25.9464 45.6522 25.4742 45.4979 25.02 45.2999L24.91 45.2C24.75 45.07 24.58 44.9599 24.42 44.8499C23.4939 44.2421 22.7569 43.3868 22.2928 42.3809C21.8287 41.3751 21.6561 40.2593 21.7947 39.1602C21.9332 38.0612 22.3773 37.0231 23.0765 36.1639C23.7757 35.3047 24.702 34.6588 25.75 34.2999C26.4307 34.0488 27.1556 33.9401 27.88 33.9801C28.3523 34.0052 28.8211 34.0754 29.28 34.19C29.43 34.19 29.52 34.1901 29.53 34.0201V33.8399C29.53 32.1799 29.4701 28.5399 29.4601 28.5299C29.4601 28.0499 29.4601 27.5299 29.4601 27.0899C29.4601 26.9599 29.4 26.93 29.28 26.92C28.4204 26.82 27.5534 26.7999 26.69 26.8599C23.5874 27.0847 20.6663 28.407 18.45 30.5899C17.0734 31.9502 16.0137 33.5973 15.3465 35.4139C14.6793 37.2305 14.4211 39.172 14.5901 41.0999C14.7575 42.8835 15.2873 44.6142 16.1471 46.1859C17.0068 47.7575 18.1784 49.1371 19.5901 50.2401C19.7988 50.4258 20.0307 50.5838 20.28 50.71L20.5999 51.0001C20.9434 51.2595 21.312 51.4839 21.7 51.67C24.0159 52.849 26.6302 53.312 29.2101 53.0001C32.4284 52.6248 35.3965 51.0796 37.55 48.6588C39.7035 46.2379 40.8922 43.1101 40.89 39.87C40.89 35.26 40.89 30.6401 40.89 26.0201C40.89 25.9101 40.83 25.76 40.95 25.7C41.07 25.64 41.14 25.7799 41.23 25.8399C42.927 26.9709 44.8138 27.7873 46.8 28.2501C47.9644 28.5196 49.1548 28.6604 50.3499 28.67C50.7299 28.67 50.78 28.6699 50.78 28.2799C50.77 26.6499 50.68 22.1901 50.68 21.7501Z" fill="white"/>
</svg>
