<svg width="66" height="65" viewBox="0 0 66 65" fill="none" xmlns="http://www.w3.org/2000/svg">
<path d="M33.16 64.38C50.938 64.38 65.35 49.968 65.35 32.19C65.35 14.412 50.938 0 33.16 0C15.3819 0 0.969971 14.412 0.969971 32.19C0.969971 49.968 15.3819 64.38 33.16 64.38Z" fill="#010101"/>
<path d="M26.65 50.7301C42.38 50.7301 50.97 37.73 50.97 26.41C50.97 26.04 50.97 25.6699 50.97 25.3099C52.6413 24.0974 54.0838 22.5974 55.23 20.88C53.6726 21.5703 52.0213 22.0253 50.3301 22.2301C52.1123 21.1603 53.4451 19.4794 54.0801 17.5001C52.4054 18.4956 50.572 19.1956 48.66 19.5699C47.4874 18.3181 45.9654 17.4478 44.2917 17.0723C42.6181 16.6968 40.8703 16.8336 39.2753 17.4644C37.6803 18.0953 36.3118 19.1914 35.3479 20.6102C34.384 22.0289 33.869 23.7048 33.87 25.42C33.8668 26.0764 33.9407 26.7308 34.0901 27.37C30.6916 27.1981 27.367 26.3145 24.3317 24.7762C21.2964 23.2379 18.618 21.0792 16.47 18.44C15.374 20.3213 15.038 22.5502 15.5305 24.671C16.0231 26.7918 17.307 28.6443 19.12 29.8499C17.7628 29.8094 16.4353 29.4423 15.25 28.7799V28.89C15.2498 30.8626 15.9317 32.7746 17.1802 34.3018C18.4286 35.8291 20.1668 36.8779 22.1 37.2701C21.3661 37.4669 20.6098 37.5676 19.85 37.5699C19.3095 37.5677 18.7704 37.5142 18.24 37.41C18.7866 39.1112 19.852 40.5987 21.2866 41.6639C22.7213 42.7291 24.4534 43.3187 26.24 43.3499C22.6521 46.1537 18.1018 47.4261 13.5801 46.89C17.4873 49.4016 22.0352 50.7349 26.6801 50.7301" fill="white"/>
</svg>
