<svg width="90" height="98" viewBox="0 0 90 98" fill="none" xmlns="http://www.w3.org/2000/svg">
<path d="M44.5536 97.1374C69.1599 97.1374 89.1073 75.5093 89.1073 48.8296C89.1073 22.15 69.1599 0.521912 44.5536 0.521912C19.9473 0.521912 0 22.15 0 48.8296C0 75.5093 19.9473 97.1374 44.5536 97.1374Z" fill="#EA593B"/>
<path d="M44.4461 76.0856C43.6569 76.0856 42.8857 75.7745 42.2938 75.2105C40.0428 73.081 37.8725 71.0779 35.9623 69.3081H35.9533C30.3393 64.1156 25.4965 59.6329 22.1245 55.2281C18.3578 50.2981 16.6001 45.6209 16.6001 40.5159C16.6001 35.4109 18.1695 30.9769 21.0214 27.6222C23.9001 24.2285 27.8641 22.3616 32.1598 22.3616C35.3704 22.3616 38.3209 23.4604 40.9127 25.6385C42.222 26.7373 43.4058 28.0792 44.4461 29.6447C45.4954 28.0792 46.6792 26.7373 47.9885 25.6385C50.5803 23.4701 53.5219 22.3616 56.7414 22.3616C61.0461 22.3616 65.0011 24.2285 67.8798 27.6222C70.7317 30.9769 72.3011 35.5471 72.3011 40.5159C72.3011 45.4848 70.5434 50.2981 66.7767 55.2281C63.4047 59.6427 58.5619 64.1156 52.9479 69.2984C51.0287 71.0682 48.8584 73.081 46.6074 75.2105C46.0155 75.7745 45.2443 76.0856 44.4551 76.0856H44.4461ZM32.1598 25.901C28.7788 25.901 25.6758 27.3596 23.4159 30.0142C21.12 32.7077 19.8645 36.4319 19.8645 40.5062C19.8645 44.8041 21.3353 48.645 24.6355 52.9624C27.8282 57.1339 32.5723 61.5194 38.0698 66.5952H38.0787C39.9979 68.3747 42.1772 70.3875 44.4461 72.5365C46.724 70.3875 48.9033 68.3649 50.8314 66.5855C56.3289 61.5097 61.073 57.1242 64.2657 52.9527C67.5659 48.6353 69.0367 44.7944 69.0367 40.4965C69.0367 36.4222 67.7722 32.698 65.4853 30.0045C63.2254 27.3499 60.1224 25.8913 56.7414 25.8913C54.2662 25.8913 51.9973 26.747 49.9884 28.4292C48.2038 29.9267 46.9572 31.8228 46.2218 33.155C45.8451 33.8357 45.1815 34.2441 44.4551 34.2441C43.7287 34.2441 43.065 33.8357 42.6884 33.155C41.9619 31.8326 40.7154 29.9364 38.9218 28.4292C36.9129 26.747 34.644 25.8913 32.1688 25.8913L32.1598 25.901Z" fill="white"/>
</svg>
