<svg width="90" height="90" viewBox="0 0 90 90" fill="none" xmlns="http://www.w3.org/2000/svg">
<path d="M44.5536 89.7701C69.1599 89.7701 89.1073 69.8228 89.1073 45.2165C89.1073 20.6102 69.1599 0.662842 44.5536 0.662842C19.9473 0.662842 0 20.6102 0 45.2165C0 69.8228 19.9473 89.7701 44.5536 89.7701Z" fill="#EA593B"/>
<path d="M72.2382 40.5082C74.256 38.5711 75.4936 35.9345 75.4936 32.984C75.4936 27.2444 70.7584 22.5092 65.0188 22.5092C59.2792 22.5092 54.5441 27.2444 54.5441 32.984C54.5441 35.9345 55.7817 38.6428 57.7278 40.5082C53.9253 42.526 51.0555 46.0953 49.8896 50.5166C49.5757 51.7542 50.356 53.0008 51.5936 53.3864C52.8312 53.7003 54.0777 52.9201 54.4634 51.6825C55.6292 47.1087 59.5842 43.8444 64.2386 43.4587C64.5525 43.4587 64.7857 43.5394 65.0906 43.5394C65.3238 43.5394 65.6376 43.5394 65.8618 43.4587C71.5207 43.8444 76.0227 48.5795 76.0227 54.3998V57.8884C76.0227 59.2067 77.0272 60.2112 78.3455 60.2112C79.6638 60.2112 80.6682 59.2067 80.6682 57.8884V54.3998C80.5875 48.3463 77.1796 43.1538 72.2113 40.5172L72.2382 40.5082ZM59.2075 32.984C59.2075 29.8003 61.8441 27.1636 65.0278 27.1636C68.2115 27.1636 70.8481 29.8003 70.8481 32.984C70.8481 35.9345 68.5971 38.4186 65.7273 38.7235H64.3283C61.4585 38.4097 59.2075 35.9345 59.2075 32.984Z" fill="white"/>
<path d="M37.7199 50.4449C36.6348 46.0236 33.6843 42.535 29.8818 40.5172C31.8996 38.5801 33.1372 35.9434 33.1372 32.9929C33.1372 27.2533 28.4021 22.5182 22.6625 22.5182C16.9229 22.5182 12.1877 27.2533 12.1877 32.9929C12.1877 35.9434 13.4253 38.6518 15.4431 40.5172C10.4748 43.1538 7.06689 48.3553 7.06689 54.3281V57.8167C7.06689 59.135 8.07132 60.1394 9.38964 60.1394C10.708 60.1394 11.7124 59.135 11.7124 57.8167V54.3281C11.7124 48.5885 16.2144 43.8533 21.8733 43.387C22.1064 43.387 22.4203 43.4677 22.6445 43.4677C22.9584 43.4677 23.1916 43.4677 23.4965 43.387C28.1509 43.7726 32.0341 46.9563 33.191 51.53C33.5049 52.7676 34.7425 53.5479 36.0608 53.234C37.2984 52.9201 37.9979 51.6825 37.693 50.4449H37.7199ZM16.8511 32.9929C16.8511 29.8092 19.4877 27.1726 22.6714 27.1726C25.8551 27.1726 28.4917 29.8092 28.4917 32.9929C28.4917 35.9434 26.2407 38.4276 23.3709 38.7325H21.9719C19.1021 38.4186 16.8511 35.9434 16.8511 32.9929Z" fill="white"/>
<path d="M51.0647 47.5751C53.0825 45.638 54.3201 43.0014 54.3201 40.0508C54.3201 34.3112 49.5849 29.5761 43.8453 29.5761C38.1057 29.5761 33.3706 34.3112 33.3706 40.0508C33.3706 43.0014 34.6082 45.7097 36.626 47.5751C31.6576 50.2117 28.2498 55.4132 28.2498 61.386V64.8746C28.2498 66.1929 29.2542 67.1973 30.5725 67.1973C31.8908 67.1973 32.8952 66.1929 32.8952 64.8746V61.386C32.8952 55.6464 37.3972 50.9112 43.0561 50.5256H44.6076C50.2665 50.9112 54.7685 55.6464 54.7685 61.386V64.8746C54.7685 66.1929 55.7729 67.1973 57.0912 67.1973C58.4095 67.1973 59.414 66.1929 59.414 64.8746V61.386C59.414 55.4132 55.9971 50.2117 51.0378 47.5751H51.0647ZM38.034 40.0508C38.034 36.8672 40.6706 34.2305 43.8543 34.2305C47.038 34.2305 49.6746 36.8672 49.6746 40.0508C49.6746 43.0014 47.4236 45.4855 44.5538 45.7904H43.1548C40.285 45.4766 38.034 43.0014 38.034 40.0508Z" fill="white"/>
</svg>
